<?xml version="1.0" encoding="UTF-8" standalone="no"?>
<!-- Created with Inkscape (http://www.inkscape.org/) -->

<svg
   width="210mm"
   height="297mm"
   viewBox="0 0 210 297"
   version="1.1"
   id="svg5"
   inkscape:version="1.1.1 (c3084ef, 2021-09-22)"
   sodipodi:docname="bulldog.svg"
   xmlns:inkscape="http://www.inkscape.org/namespaces/inkscape"
   xmlns:sodipodi="http://sodipodi.sourceforge.net/DTD/sodipodi-0.dtd"
   xmlns="http://www.w3.org/2000/svg"
   xmlns:svg="http://www.w3.org/2000/svg">
  <sodipodi:namedview
     id="namedview7"
     pagecolor="#ffffff"
     bordercolor="#666666"
     borderopacity="1.0"
     inkscape:pageshadow="2"
     inkscape:pageopacity="0.0"
     inkscape:pagecheckerboard="0"
     inkscape:document-units="mm"
     showgrid="false"
     inkscape:zoom="0.85261142"
     inkscape:cx="488.4992"
     inkscape:cy="315.50129"
     inkscape:window-width="1312"
     inkscape:window-height="916"
     inkscape:window-x="0"
     inkscape:window-y="38"
     inkscape:window-maximized="0"
     inkscape:current-layer="layer1" />
  <defs
     id="defs2" />
  <g
     inkscape:label="Layer 1"
     inkscape:groupmode="layer"
     id="layer1">
    <path
       style="fill:none;stroke:#000000;stroke-width:0.264583px;stroke-linecap:butt;stroke-linejoin:miter;stroke-opacity:1"
       d="m 88.016291,42.662919 -4.238281,-4.694941 -2.562257,-4.503359 -0.388221,-4.89158 2.562257,-4.11514 3.571632,-4.425715 4.037494,-4.037494 5.590376,-4.425715 7.143259,-4.8915802 5.51273,-3.8822063 2.40697,-1.242306 0.93173,0.4658647 0.0776,2.9504767 -2.25168,3.2610533 -4.81393,3.7269178 -5.59038,10.249025 -1.785813,5.124513 4.813933,-3.18341 7.68677,-2.950477 5.20216,0.854085 6.59975,2.950477 5.35744,3.493986 3.41635,0.465866 -1.16467,-2.251681 0.31058,-3.57163 3.10576,-3.882206 5.51274,-4.115139 8.46321,-4.037494 1.08702,0.310576 -1.16467,2.717545 -1.86346,2.251679 -0.93173,0.07764 -3.10576,6.755039 -2.71755,8.540854 6.36682,3.95985 6.6774,6.21153 4.03749,5.357445 1.55288,3.571629 -0.15529,3.416342 -1.39759,3.183408 -3.26105,4.348073 -0.15529,3.493984 -1.08702,3.804563 5.35745,3.804563 7.06561,2.795188 1.31995,2.872832 0.6988,6.755037 -0.38822,6.522109 -3.3387,8.152634 -2.32932,3.26106 -3.10577,2.40696 -1.70817,0.38822 -2.56225,2.17404 -2.71755,0.23293 -2.25168,2.25168 -2.01875,0.54351 -2.79518,-0.38822 -7.84206,3.3387 4.11514,4.11514 4.581,8.23027 2.25168,7.99735 0.6988,7.53148 -0.54351,3.57163 -2.40697,2.6399 -3.41634,0.23293 -8.38556,-2.6399 -7.06562,-2.79519 -5.59038,7.37619 -3.33869,3.10577 -5.74567,0.38822 -3.3387,-1.3976 -8.152629,-6.13388 -10.559603,-5.9786 -12.034837,-8.54085 -6.056244,-7.68677 -2.639898,-5.59038 -0.465866,-7.45383 0.232932,-6.05625 2.096391,-5.82331 2.872833,-2.795188 4.658648,-1.242306 1.009372,-1.941103 -7.220902,-7.842056 10.17138,1.708171 2.096391,-3.804563 4.270428,1.785816 4.658646,-9.006718 -2.562254,-4.89158 -4.348073,-5.668023 -1.708171,-6.133886 2.018747,-9.938445 z"
       id="path902" />
  </g>
</svg>
